<svg class="svg-icon" style="width: 1em; height: 1em;vertical-align: middle;fill: currentColor;overflow: hidden;" viewBox="0 0 1024 1024" version="1.1" xmlns="http://www.w3.org/2000/svg"><path d="M162.4 1024c-8.8 0-16-7.2-16-16v-86.4c0-8.8 7.2-16 16-16s16 7.2 16 16V1008c0 8.8-7.2 16-16 16zM828 1024c-8.8 0-16-7.2-16-16v-86.4c0-8.8 7.2-16 16-16s16 7.2 16 16V1008c0 8.8-7.2 16-16 16z"  /><path d="M1004 937.6H20c-8.8 0-16-7.2-16-16V460c0-8.8 7.2-16 16-16h984c8.8 0 16 7.2 16 16v460.8c0 9.6-7.2 16.8-16 16.8z m-968-32h952V476H36v429.6z"  /><path d="M307.2 782.4H224.8c-4.8 0-8-3.2-8-8s3.2-8 8-8h83.2c4.8 0 8 3.2 8 8-0.8 4-4 8-8.8 8zM307.2 615.2H224.8c-4.8 0-8-3.2-8-8s3.2-8 8-8h83.2c4.8 0 8 3.2 8 8-0.8 4.8-4 8-8.8 8zM596 740.8c-4.8 0-8-3.2-8-8V648.8c0-4.8 3.2-8 8-8s8 3.2 8 8v84c0 4-4 8-8 8zM779.2 395.2H244.8c-8.8 0-16-7.2-16-16V24c0-8.8 7.2-16 16-16h534.4c8.8 0 16 7.2 16 16v355.2c0 8.8-7.2 16-16 16z m-518.4-32h502.4V40H260.8v323.2z"  /><path d="M588.8 476H435.2c-8.8 0-16-7.2-16-16V379.2c0-8.8 7.2-16 16-16h152.8c8.8 0 16 7.2 16 16v80.8c0.8 8.8-6.4 16-15.2 16z m-137.6-32h120.8v-48.8H451.2v48.8zM527.2 305.6h-29.6c-4.8 0-8-3.2-8-8s3.2-8 8-8h29.6c4.8 0 8 3.2 8 8s-4 8-8 8z"  /><path d="M512 929.6c-4.8 0-8-3.2-8-8V460c0-4.8 3.2-8 8-8s8 3.2 8 8v460.8c0 4.8-3.2 8.8-8 8.8z"  /><path d="M512 698.4H20c-4.8 0-8-3.2-8-8s3.2-8 8-8H512c4.8 0 8 3.2 8 8s-3.2 8-8 8z"  /></svg>