<svg class="svg-icon" style="width: 1em;height: 1em;vertical-align: middle;fill: currentColor;overflow: hidden;" viewBox="0 0 1024 1024" version="1.1" xmlns="http://www.w3.org/2000/svg"><path d="M789.4016 576.9728H189.44a15.0528 15.0528 0 0 1-15.36-15.0528V455.0656a15.0528 15.0528 0 0 1 15.36-15.0528h599.9616a15.0528 15.0528 0 0 1 15.0528 15.0528v106.8544a15.0016 15.0016 0 0 1-15.0528 15.0528z m-585.1648-30.0544h570.1632v-76.8H204.2368z"  /><path d="M858.5728 557.6704h-67.9424a15.0528 15.0528 0 0 1-15.0016-15.0528V474.368a15.0528 15.0528 0 0 1 15.0016-15.0528h67.9424a15.0528 15.0528 0 0 1 15.0016 15.0528V542.72a15.0528 15.0528 0 0 1-15.0016 14.9504zM805.6832 527.36h37.8368v-37.9392h-37.8368zM188.7744 557.6704h-93.696a15.0528 15.0528 0 0 1-15.0528-14.9504V474.368a15.0528 15.0528 0 0 1 15.0528-15.0528h93.696a15.0528 15.0528 0 0 1 15.0528 15.0528V542.72a15.0528 15.0528 0 0 1-15.0528 14.9504zM110.08 527.36h63.6416v-37.9392H110.08z"  /><path d="M939.9808 523.52h-73.728a15.0528 15.0528 0 1 1 0-30.0544h73.728a15.0528 15.0528 0 1 1 0 30.0544zM943.0528 804.5568H97.28a15.0528 15.0528 0 0 1-15.36-15.0528v-145.152a15.0528 15.0528 0 0 1 15.36-15.0016h845.7728a15.0528 15.0528 0 0 1 15.0528 15.0016v145.152a15.0528 15.0528 0 0 1-15.0528 15.0528z m-830.976-30.1056h815.9232v-115.0464H112.0768z"  /><path d="M167.7824 739.3792a15.0528 15.0528 0 0 1-15.0528-15.0528v-73.728a15.0528 15.0528 0 1 1 30.1056 0v73.728a15.0528 15.0528 0 0 1-15.0528 15.0528zM246.2208 706.2528a15.0528 15.0528 0 0 1-15.0528-15.0528v-40.6016a15.0528 15.0528 0 1 1 30.0544 0V691.2a15.0528 15.0528 0 0 1-15.0016 15.0528zM324.6592 739.3792a15.0528 15.0528 0 0 1-15.0528-15.0528v-73.728a15.0528 15.0528 0 1 1 30.0544 0v73.728a15.0528 15.0528 0 0 1-15.0016 15.0528zM403.0464 706.2528a15.0528 15.0528 0 0 1-15.0016-15.0528v-40.6016a15.0528 15.0528 0 1 1 30.0544 0V691.2a15.0528 15.0528 0 0 1-15.0528 15.0528zM481.28 739.3792a15.0528 15.0528 0 0 1-15.0528-15.0528v-73.728a15.0528 15.0528 0 0 1 30.1056 0v73.728a15.0528 15.0528 0 0 1-15.0528 15.0528zM559.9232 706.2528a15.0528 15.0528 0 0 1-15.0528-15.0528v-40.6016a15.0528 15.0528 0 0 1 30.1056 0V691.2a15.0528 15.0528 0 0 1-15.0528 15.0528zM638.3616 706.2528a15.0528 15.0528 0 0 1-15.0528-15.0528v-40.6016a15.0528 15.0528 0 0 1 30.1056 0V691.2a15.0528 15.0528 0 0 1-15.0528 15.0528zM716.8 739.3792a15.0528 15.0528 0 0 1-15.0528-15.0528v-73.728a15.0528 15.0528 0 0 1 30.1056 0v73.728a15.0528 15.0528 0 0 1-15.0528 15.0528zM873.6768 739.3792a15.0528 15.0528 0 0 1-15.0528-15.0528v-73.728a15.0528 15.0528 0 1 1 30.0544 0v73.728a15.0528 15.0528 0 0 1-15.0016 15.0528zM795.2384 706.2528a15.0528 15.0528 0 0 1-15.0528-15.0528v-40.6016a15.0528 15.0528 0 0 1 30.1056 0V691.2a15.0528 15.0528 0 0 1-15.0528 15.0528zM845.1584 381.5936H244.9408a15.0528 15.0528 0 0 1-15.0528-15.0016v-133.12a15.0528 15.0528 0 0 1 15.0528-15.0016h600.2176a15.0528 15.0528 0 0 1 15.0016 15.0528v133.12a15.0528 15.0528 0 0 1-15.0016 14.9504zM259.9936 351.5392h570.112V248.576H259.9936z"  /><path d="M903.0144 381.5936h-59.4944a15.0528 15.0528 0 0 1-15.0528-15.0016v-133.12a15.0528 15.0528 0 0 1 15.0528-15.0016h59.4944a54.7328 54.7328 0 0 1 54.6816 54.6304v53.8624a54.7328 54.7328 0 0 1-54.6816 54.6304z m-44.4416-30.0544h44.4416a24.6272 24.6272 0 0 0 24.576-24.576V273.152a24.6272 24.6272 0 0 0-24.576-24.576h-44.4416zM744.0896 311.9104H346.0096a15.0528 15.0528 0 1 1 0-30.1056h398.08a15.0528 15.0528 0 0 1 0 30.1056zM244.9408 381.5936a14.7968 14.7968 0 0 1-5.6832-1.1264L79.36 314.9312a15.0528 15.0528 0 0 1 0-27.8016l159.744-67.4304a15.0528 15.0528 0 1 1 11.776 27.6992L124.2112 300.8 250.88 352.6656a15.0528 15.0528 0 0 1-5.7344 28.928z"  /></svg>