<svg class="svg-icon" style="width: 1em; height: 1em;vertical-align: middle;fill: currentColor;overflow: hidden;" viewBox="0 0 1024 1024" version="1.1" xmlns="http://www.w3.org/2000/svg"><path d="M677.3 441.6H344.1v-64.2h333.2v64.2z m-313.9-19.4H658v-25.5H363.4v25.5zM576.4 643.4H445V478.3h131.4v165.1zM464.3 624H557V497.6h-92.7V624z" fill="#111111" /><path d="M621.3 678.5h-19.4V441.6H419.5v236.9h-19.4V422.2h221.2zM516.8 248.2h-12.3c-26.7 0-48.4-21.7-48.4-48.4v-12.3c0-26.7 21.7-48.4 48.4-48.4h12.3c26.7 0 48.4 21.7 48.4 48.4v12.3c0 26.7-21.7 48.4-48.4 48.4z m-12.2-89.7c-16 0-29 13-29 29v12.3c0 16 13 29 29 29h12.3c16 0 29-13 29-29v-12.3c0-16-13-29-29-29h-12.3zM621.3 387.1H602v-65.6c0-29.6-24.1-53.6-53.6-53.6h-75.2c-29.6 0-53.6 24.1-53.6 53.6v65.6h-19.3v-65.6c0-40.2 32.7-73 73-73h75.2c40.2 0 73 32.7 73 73v65.6z" fill="#111111" /><path d="M450.6 342.2h19.3V387h-19.3zM551.5 342.2h19.3V387h-19.3zM511.5 303H510c-2.7 0-4.8-2.2-4.8-4.8v-1.5c0-2.7 2.2-4.8 4.8-4.8h1.5c2.7 0 4.8 2.2 4.8 4.8v1.5c0 2.6-2.2 4.8-4.8 4.8zM511.5 325.4H510c-2.7 0-4.8-2.2-4.8-4.8v-1.5c0-2.7 2.2-4.8 4.8-4.8h1.5c2.7 0 4.8 2.2 4.8 4.8v1.5c0 2.7-2.2 4.8-4.8 4.8zM896.3 843.5H719.9v-19.3h176.5c22 0 39.9-17.9 39.9-39.9h19.3c0 32.6-26.6 59.2-59.3 59.2zM90.6 833.8H71.2V404.4c0-32.7 26.6-59.2 59.2-59.2h87.9v19.3h-87.9c-22 0-39.9 17.9-39.9 39.9v429.4zM873 718.2h-19.4V364.5h-64.5v-19.4H873z" fill="#111111" /><path d="M90.6 883.3H71.2c0-32.7 26.6-59.2 59.2-59.2h732.9v19.3H130.4c-22 0.1-39.8 17.9-39.8 39.9zM955.6 767.7h-19.3c0-22-17.9-39.9-39.9-39.9h-42.7V262.5h42.7c32.7 0 59.2 26.6 59.2 59.2v446zM873 708.5h23.4c15.3 0 29.3 5.9 39.9 15.5V321.8c0-22-17.9-39.9-39.9-39.9H873v426.6z" fill="#111111" /><path d="M955.6 784.2h-19.3v-16.5c0-22-17.9-39.9-39.9-39.9h-33v-19.3h33c32.7 0 59.2 26.6 59.2 59.2v16.5zM163.5 959.1h-33c-32.7 0-59.2-26.6-59.2-59.2h19.3c0 22 17.9 39.9 39.9 39.9h33v19.3z" fill="#111111" /><path d="M173.1 959.1h-42.7c-32.7 0-59.2-26.6-59.2-59.2v-16.5h19.3v16.5c0 22 17.9 39.9 39.9 39.9h23.4v-106h19.3v125.3z" fill="#111111" /><path d="M71.2 833.8h19.3v66.1H71.2zM789.1 416h74.2v9.7h-74.2zM892.9 782.2H142.1V416h76.2v9.7h-66.5v346.9h731.4v-54.4h9.7z" fill="#111111" /><path d="M798.8 480.2H611.6v-19.3h167.8V83.6H228v377.3h181.8v19.3H208.7v-416h590.1z" fill="#111111" /></svg>